HIERARCHY
ROOT Hips
{
  OFFSET 13.6774 106.653 -34.4427
  CHANNELS 6 Xposition Yposition Zposition Zrotation Xrotation Yrotation
  JOINT ToSpine
  {
    OFFSET -2.69724 7.43032 -0.144315
    CHANNELS 3 Zrotation Xrotation Yrotation
    JOINT Spine
    {
      OFFSET -0.0310711 10.7595 1.96963
      CHANNELS 3 Zrotation Xrotation Yrotation
      JOINT Spine1
      {
        OFFSET 19.9056 3.91189 0.764692
        CHANNELS 3 Zrotation Xrotation Yrotation
        JOINT Neck
        {
          OFFSET 25.9749 7.03908 -0.130764
          CHANNELS 3 Zrotation Xrotation Yrotation
          JOINT Head
          {
            OFFSET 9.52751 0.295786 -0.907742
            CHANNELS 3 Zrotation Xrotation Yrotation
            End Site
            {
              OFFSET 16.4037 0.713936 2.7358
            }
          }
        }
        JOINT LeftShoulder
        {
          OFFSET 17.7449 4.33886 11.7777
          CHANNELS 3 Zrotation Xrotation Yrotation
          JOINT LeftArm
          {
            OFFSET 0.911315 1.27913 9.80584
            CHANNELS 3 Zrotation Xrotation Yrotation
            JOINT LeftForeArm
            {
              OFFSET 28.6126 1.18197 -3.53199
              CHANNELS 3 Zrotation Xrotation Yrotation
              JOINT LeftHand
              {
                OFFSET 27.5088 0.0218783 0.327423
                CHANNELS 3 Zrotation Xrotation Yrotation
                End Site
                {
                  OFFSET 18.6038 -0.000155887 0.382096
                }
              }
            }
          }
        }
        JOINT RightShoulder
        {
          OFFSET 17.1009 2.89543 -12.2328
          CHANNELS 3 Zrotation Xrotation Yrotation
          JOINT RightArm
          {
            OFFSET 1.4228 0.178766 -10.211
            CHANNELS 3 Zrotation Xrotation Yrotation
            JOINT RightForeArm
            {
              OFFSET 28.733 1.87905 2.64907
              CHANNELS 3 Zrotation Xrotation Yrotation
              JOINT RightHand
              {
                OFFSET 27.4588 0.290562 -0.101845
                CHANNELS 3 Zrotation Xrotation Yrotation
                End Site
                {
                  OFFSET 17.8396 -0.255518 -0.000602873
                }
              }
            }
          }
        }
      }
    }
  }
  JOINT LeftUpLeg
  {
    OFFSET -5.61296 -2.22332 -10.2353
    CHANNELS 3 Zrotation Xrotation Yrotation
    JOINT LeftLeg
    {
      OFFSET 2.56703 -44.7417 -7.93097
      CHANNELS 3 Zrotation Xrotation Yrotation
      JOINT LeftFoot
      {
        OFFSET 3.16933 -46.5642 -3.96578
        CHANNELS 3 Zrotation Xrotation Yrotation
        JOINT LeftToeBase
        {
          OFFSET 0.346054 -6.02161 12.8035
          CHANNELS 3 Zrotation Xrotation Yrotation
          End Site
          {
            OFFSET 0.134235 -1.35082 5.13018
          }
        }
      }
    }
  }
  JOINT RightUpLeg
  {
    OFFSET -5.7928 -1.72406 10.6446
    CHANNELS 3 Zrotation Xrotation Yrotation
    JOINT RightLeg
    {
      OFFSET -2.57161 -44.7178 -7.85259
      CHANNELS 3 Zrotation Xrotation Yrotation
      JOINT RightFoot
      {
        OFFSET -3.10148 -46.5936 -4.03391
        CHANNELS 3 Zrotation Xrotation Yrotation
        JOINT RightToeBase
        {
          OFFSET -0.0828122 -6.13587 12.8035
          CHANNELS 3 Zrotation Xrotation Yrotation
          End Site
          {
            OFFSET -0.131328 -1.35082 5.13018
          }
        }
      }
    }
  }
}
MOTION
Frames: 21
Frame Time: 0.03333333333333333
0.0000 93.1000 0.0000 -65.1137 -37.5865 -174.8671 -70.8162 0.7123 88.0047 76.3410 73.8134 23.4292 3.7823 26.1970 -0.7886 -138.5323 14.0659 -160.9929 -157.4320 48.9190 -167.2283 1.2792 -10.2758 -20.1547 -133.3024 32.0169 -77.4803 13.6808 -11.9118 -126.2541 0.0120 0.2574 0.5289 -1.1807 8.7180 28.2217 -54.4555 -30.9431 168.1056 31.3820 -9.0662 75.3591 0.2324 -0.4942 0.2977 -66.9562 -2.6975 106.1624 -6.4616 60.0723 -6.2711 -13.4047 19.9308 3.8975 4.7675 -9.9376 -5.8506 -34.4095 -14.3952 49.4888 2.6537 51.6578 -4.3312 -7.2830 -27.9082 1.9605 5.7727 0.4147 -36.9880 
0.0000 93.1000 0.0000 -65.3771 -46.6943 -171.5001 -70.7244 0.3633 87.8159 80.1121 74.8663 16.6055 3.0470 27.6363 -2.3575 -134.5536 14.9475 -164.3552 -156.4087 50.6137 -168.0477 0.7361 -10.9803 -21.1627 -124.7835 43.3881 -86.4476 18.4455 -13.0515 -123.1981 -0.3783 0.9376 0.4936 -0.7967 9.6754 26.1914 -58.0158 -35.0093 169.1933 30.1290 -8.9054 75.4429 0.7317 -1.2101 0.9037 -65.9642 2.4070 109.1227 -4.7421 56.2201 -2.5063 -11.8380 21.7174 2.5410 10.4191 -23.9065 12.0901 -36.5904 -14.2735 47.0391 2.4174 50.6050 -5.9765 -6.9260 -26.2099 1.9285 5.7303 -0.7322 -37.6353 
0.0000 93.1000 0.0000 -64.3803 -56.5360 -165.6460 -70.9257 0.4337 88.0706 85.2320 75.9235 10.9262 3.3901 28.5971 -4.1092 -128.8846 15.5404 -169.8000 -156.2214 52.0864 -167.1840 0.6494 -11.6962 -21.0577 -105.8220 52.0516 -103.5649 24.7397 -14.2638 -116.5473 -0.0370 0.6827 -0.1926 -0.8197 10.5046 23.6773 -62.0026 -41.8073 167.9242 30.6047 -9.8915 73.9495 0.6639 -1.0216 0.6077 -65.7386 8.0318 110.8709 -2.9303 56.8328 9.5975 -3.9293 14.9292 0.6926 6.5050 -15.5195 7.3512 -38.8797 -15.2145 45.6229 0.9806 48.6346 -10.9523 -7.0498 -22.5809 1.9148 5.1589 -1.6092 -33.5867 
0.0000 93.1000 0.0000 -57.1303 -67.4243 -156.3496 -71.1701 -1.2381 88.0498 80.2113 76.0855 13.5354 3.7792 29.0611 -5.2747 -120.9312 15.6778 -174.6055 -155.3242 53.1057 -166.4454 -0.2834 -12.8048 -17.5326 -83.8563 55.2929 -122.8239 32.6014 -13.2097 -110.2929 0.3035 0.0177 -0.5187 -2.5557 10.8573 20.8068 -67.1226 -49.2568 162.2438 29.2105 -9.7401 73.2014 -0.3772 -0.3761 -1.1666 -66.9192 11.0821 112.0358 -0.7732 49.1547 12.9829 -0.2985 10.9650 1.6764 5.2875 -12.2051 1.0593 -42.8972 -16.3593 43.3345 0.5045 45.7247 -14.0918 -5.1005 -15.9460 -0.7120 2.4749 -7.8335 -23.7750 
0.0000 93.1000 0.0000 -24.7770 -76.4882 -120.7518 -71.3956 0.3720 87.8877 61.1392 73.2833 29.0276 7.8011 28.1341 -6.3219 -116.0677 14.5445 180.8048 -157.4377 54.1146 -163.6385 0.4416 -13.3123 -14.4831 -66.9679 52.3245 -138.6942 36.1102 -10.9537 -104.6013 0.5306 0.4760 -0.1831 -0.4216 10.5933 15.6911 -74.9573 -59.7964 153.6871 30.0393 -9.7896 73.3276 0.5914 -0.9353 0.0627 -66.9348 13.8036 109.1017 -0.5908 40.0628 7.4113 -0.3603 9.7850 -0.3699 6.1185 -13.9086 0.7255 -45.6882 -17.9773 43.2783 -0.9041 43.8555 -16.7781 -6.1628 -11.8189 1.6147 1.8732 -2.9641 -12.7343 
0.0000 93.1000 0.0000 33.6877 -72.8191 -59.2156 -71.5859 0.3248 87.8370 46.4191 69.8822 37.8893 10.8047 25.6628 -5.3251 -109.1702 10.8429 169.5885 -152.4935 53.9384 -164.9468 0.3354 -14.7967 -9.8774 -56.7807 47.8214 -149.7220 35.3506 -7.5816 -99.2463 -0.0051 0.2774 -0.4367 -0.6418 10.1400 18.7753 -94.6305 -60.0717 131.9214 28.6683 -9.5307 74.0959 0.2430 -0.6576 0.0930 -63.9749 15.6089 103.2077 -1.8866 31.0610 -3.9221 -1.7949 11.0606 0.3366 6.5679 -16.1293 4.8265 -44.7644 -17.4755 48.7497 -0.3662 41.8539 -16.9016 -5.7463 -4.9117 1.3047 2.1015 -7.6133 -7.5964 
0.0000 93.1000 0.0000 56.9252 -62.1887 -31.3265 -71.6044 -0.9906 87.9077 51.5851 68.7491 33.0534 11.5667 23.8346 -6.6761 -108.0833 10.6923 166.2654 -157.4540 55.7475 -157.9909 -0.7983 -15.3338 -9.2226 -55.7214 41.4342 -152.2970 33.2440 -5.4576 -97.4533 -0.0574 0.9982 0.0335 -1.1713 10.5709 20.3146 -112.9475 -56.7628 113.4260 23.5963 -8.2744 72.8372 0.1477 -1.5145 0.4123 -58.1546 17.1294 96.8183 -2.0390 32.2942 -5.0785 -2.5410 9.7845 0.2978 5.5152 -14.8466 5.3324 -43.5872 -17.2326 56.8817 -0.5559 44.4603 -15.5534 -5.7191 1.4817 0.2553 1.1679 -6.8824 -6.7344 
0.0000 93.1000 0.0000 63.8582 -51.8740 -21.4050 -71.4484 -0.0877 87.7983 63.0951 69.3130 24.6877 10.7664 23.2390 -8.7132 -108.2396 12.1304 162.3011 -161.9696 57.6007 -151.8362 0.0097 -15.2737 -10.9848 -57.7259 32.9287 -154.9247 28.7749 -3.7334 -96.4066 0.1465 0.1482 -0.1784 -1.1552 10.9560 22.2785 -125.1004 -47.4870 104.1358 21.7064 -8.2918 70.8418 0.3235 -0.5253 0.1945 -52.6448 18.5730 96.3134 -1.9805 36.1699 -2.0995 -3.8326 7.4430 0.3971 4.1508 -11.1739 1.0233 -41.1209 -14.4619 68.3557 0.5412 47.7967 -11.3137 -9.1083 4.3397 1.1984 0.2995 -9.4469 -6.4185 
0.0000 93.1000 0.0000 65.8913 -44.2196 -17.3682 -71.3199 1.9274 87.8312 78.1433 70.8678 13.4655 8.8600 23.6474 -7.9056 -112.0548 15.7483 162.9240 -173.5898 60.1385 -142.4425 2.2053 -14.8726 -13.8096 -58.5113 29.3925 -155.5076 26.5830 -3.1449 -95.7180 0.8062 -2.8825 -1.5149 -1.8549 11.8086 20.1416 -133.7941 -40.5952 94.3765 19.6992 -8.2579 68.0465 -0.8240 3.0626 -1.2165 -50.8370 19.3008 97.8672 -2.2137 39.1225 -1.2517 -3.3860 4.1235 1.9945 6.4894 -14.1934 -6.3385 -38.4175 -11.3066 80.8986 3.2281 46.2087 3.4333 -6.8933 3.2073 0.6955 0.2007 -21.0477 -16.6571 
0.0000 93.1000 0.0000 64.8985 -36.6387 -14.8317 -71.3630 0.1149 88.0498 86.0835 71.3548 3.7504 3.9982 22.8381 -5.9537 -115.1078 19.1215 161.5286 176.6356 62.7995 -136.6688 -0.1700 -14.9049 -16.9324 -57.9110 26.5729 -155.5270 26.2993 -2.6310 -94.1175 -0.0021 0.0709 -0.2140 -1.6882 10.0493 23.5080 -134.6847 -27.0591 95.4854 13.8748 -7.9152 63.7907 0.3377 -0.3422 0.7409 -47.9471 18.3249 100.7360 -3.1357 39.4007 -6.4718 -1.8946 -1.3205 -0.7835 6.7099 -15.3698 -6.3458 -37.7193 -8.8662 91.9958 3.7093 37.8756 13.5439 -0.9649 0.1225 0.2984 0.9682 -27.8308 -35.8942 
0.0000 93.1000 0.0000 63.2114 -31.1752 -14.6668 -71.2468 -0.2361 88.0090 89.0309 71.9855 -1.4921 2.4049 22.8784 -4.4924 -122.1796 22.2369 155.2894 172.9468 65.8656 -141.1840 -0.6028 -15.1859 -18.3665 -59.5151 24.6316 -157.2375 23.8204 -1.0269 -92.7183 -0.0616 0.3938 0.0805 -2.1097 9.3590 29.9056 -136.6712 -13.8202 97.7295 10.6364 -7.1871 59.9540 0.4042 -0.7004 0.5340 -42.6938 17.5224 102.7129 -3.5507 40.6180 -11.5664 -1.4373 -4.8933 -1.1654 5.3996 -14.0400 -2.5192 -34.9923 -11.6208 93.6722 2.7658 34.4933 17.7373 2.2653 -1.2085 -0.1635 2.0187 -22.7407 -37.9015 
0.0000 93.1000 0.0000 64.2225 -24.1074 -14.0415 -71.2583 -0.0122 88.0370 87.7171 71.7610 -2.9549 2.7907 22.1910 -4.7061 -129.2950 25.5871 153.1489 168.7926 68.7634 -141.6567 -0.4850 -16.3256 -21.8207 -62.7716 21.7274 -156.3069 23.3366 -0.5899 -91.6349 -0.1847 -0.0404 0.0446 -2.4376 9.5425 34.0490 -141.1676 -4.5810 97.8747 6.9534 -5.0826 57.5857 0.2162 -0.2073 0.1281 -36.4672 14.4777 100.8521 -4.3037 44.1340 -13.0805 0.7319 -7.5639 -1.3807 4.5284 -12.7981 0.6727 -31.2036 -15.0540 92.3963 2.5975 39.6843 9.6943 1.7794 -4.8971 -0.0236 2.0514 -12.0989 -32.6493 
0.0000 93.1000 0.0000 66.2584 -19.0595 -12.1142 -71.1329 0.1524 87.9268 101.5703 70.4547 -14.6345 1.3199 22.3613 -5.0480 -130.1060 28.0814 152.4077 162.4524 70.8070 -137.4443 -0.5426 -16.6710 -23.5427 -63.8805 21.6214 -155.3777 22.9502 -1.0885 -91.5760 0.1425 -0.0839 0.2546 -2.5582 9.4808 36.0950 -145.9200 -0.6771 96.0854 4.9692 -4.2127 58.2593 0.2386 -0.1763 0.0689 -32.5907 13.6808 98.7303 -5.1813 48.3435 -15.3666 -0.2400 -10.4420 -1.5441 4.4527 -11.4589 3.1424 -29.8636 -18.1330 90.7172 3.2451 45.5873 12.5350 2.4100 -6.8064 -0.1379 3.4311 -12.5744 -40.9965 
0.0000 93.1000 0.0000 66.3036 -16.5593 -9.4638 -71.2728 0.0297 88.0466 101.8715 70.6620 -14.3995 0.5614 21.6900 -4.2059 -127.0157 29.6089 152.6173 156.1751 72.0468 -130.3490 -0.8910 -17.5505 -25.8800 -63.8690 23.4154 -153.1680 23.6335 -1.2402 -91.9004 0.0485 0.2340 0.2502 -2.5648 8.7145 38.1161 -149.4605 1.8002 94.1608 4.6148 -4.1162 59.1873 0.2536 -0.5549 0.1264 -29.2862 15.0224 98.2719 -6.5784 55.1029 -17.9659 0.1299 -11.3265 -2.0790 4.5424 -12.6813 3.7703 -29.9794 -20.9884 87.0504 3.3735 49.0555 8.9399 2.3018 -7.8797 0.0144 2.7708 -14.2220 -27.6822 
0.0000 93.1000 0.0000 67.0632 -15.0054 -8.1482 -71.1067 -0.2940 88.0443 100.0158 70.8073 -13.6719 -0.0280 21.0343 -2.5354 -125.3332 30.9818 153.0534 154.2257 72.6012 -127.2043 -1.2736 -18.1277 -26.3341 -61.4354 25.9338 -152.4651 24.1703 -1.6847 -93.4532 -0.3524 0.2454 0.0264 -2.9792 8.2401 39.2643 -151.4800 3.1411 93.3359 3.9103 -3.0345 60.0951 0.0182 -0.6343 -0.2867 -28.6700 16.6418 98.3177 -8.1848 58.9064 -17.9473 0.5821 -12.7084 -2.0164 4.5698 -11.4550 0.0126 -30.9610 -24.4293 81.6646 3.8655 51.7614 7.4313 0.9111 -8.9665 -0.0452 1.6422 -14.5859 -16.0489 
0.0000 93.1000 0.0000 68.1005 -14.1253 -7.0126 -71.1181 0.0387 88.0311 99.6436 71.2281 -12.4187 -0.0411 20.7212 -1.5417 -125.1888 31.6592 153.1136 155.6211 73.0691 -127.6629 -0.9011 -18.1452 -26.1412 -60.9886 26.5887 -151.4703 23.8634 -2.2804 -94.5581 -0.1070 -0.0655 -0.1851 -3.0602 8.1197 39.9873 -152.2818 4.1657 93.2119 4.1834 -2.9662 60.1892 0.0525 -0.2619 0.1093 -28.2148 17.4466 98.1804 -8.1197 60.4419 -16.9366 0.4748 -14.0570 -2.1552 4.2792 -10.1045 -1.9959 -32.1631 -28.2555 75.2742 3.8195 53.5789 7.3170 0.9858 -10.0565 0.3806 1.1460 -11.1001 -8.5819 
0.0000 93.1000 0.0000 68.2026 -14.2797 -5.8371 -70.9938 0.0861 88.0170 97.0834 71.1560 -10.0707 0.0114 20.8946 -1.0742 -126.1824 32.7490 155.6276 151.2696 73.4336 -125.7117 -0.7227 -17.7057 -26.1702 -60.9642 26.5776 -151.8934 23.1775 -2.8876 -95.4262 -0.3363 -0.1378 0.0136 -3.0325 7.8566 39.6019 -153.0561 4.0674 91.5261 4.4831 -2.9420 61.0201 -0.0354 -0.1051 0.1286 -28.0715 17.0927 97.0787 -8.1065 60.5777 -17.8111 -0.0460 -15.3488 -2.1177 4.2903 -11.5195 2.1387 -33.0581 -30.7977 71.0775 5.2653 53.9303 11.4290 0.8302 -10.3432 0.2838 1.3550 -10.4143 -10.5835 
0.0000 93.1000 0.0000 68.9161 -15.1957 -5.8676 -70.9443 -0.4774 87.8710 96.8570 70.9369 -9.4864 -0.2200 21.0326 -1.0506 -126.3835 32.9332 153.5795 152.6409 73.9607 -128.8201 -1.0980 -17.3956 -25.9772 -61.0283 25.5463 -153.2693 23.1811 -2.5410 -95.4055 -0.2667 0.2324 0.4210 -3.1929 7.9410 39.5735 -151.6411 5.3308 92.2258 4.3335 -3.2932 61.7222 -0.0254 -0.5379 0.0123 -28.4968 17.2031 95.4913 -7.9188 60.9722 -15.9143 -0.4829 -17.1843 -2.1258 4.0059 -10.3899 0.9995 -34.0982 -31.2904 69.0918 5.1599 53.7222 14.1112 0.8785 -10.9065 -0.1558 1.9966 -10.1633 -13.6879 
0.0000 93.1000 0.0000 69.1546 -16.3619 -5.9858 -70.9998 0.4273 87.9585 95.4523 70.9333 -7.4850 -0.1158 20.9049 -0.7899 -128.2759 33.9114 155.0578 152.6826 74.8099 -128.2302 -0.1031 -17.0636 -25.3700 -61.1495 25.7925 -153.0118 23.0530 -2.8503 -95.4714 0.3356 -0.5737 -0.1063 -3.0162 8.0236 39.1292 -151.9649 3.8568 91.2679 5.4638 -3.7086 61.7062 0.2436 0.4275 -0.1369 -29.0799 16.9980 95.2946 -7.5822 60.9948 -15.1257 -0.2893 -17.7299 -1.9692 4.2110 -9.8677 0.2386 -35.3266 -31.2167 68.2061 5.0104 52.7897 13.1181 0.6772 -10.8577 0.2435 1.5176 -9.1379 -9.9475 
0.0000 93.1000 0.0000 69.2719 -17.3264 -6.0569 -71.0738 0.2236 87.7711 92.7910 71.0211 -4.5757 0.2547 20.9578 0.0067 -129.2127 33.9713 156.3655 151.1734 74.9127 -128.2912 -0.3240 -17.1604 -25.3147 -61.0854 26.2617 -153.1927 22.5934 -3.1478 -95.6286 0.2831 -0.3341 -0.1196 -2.9396 7.7079 38.2103 -151.5194 2.9601 90.6183 5.1194 -3.6475 61.3062 0.0570 0.1231 -0.1921 -30.3548 17.1375 95.1853 -7.9294 60.3889 -15.1481 -0.3361 -17.5975 -2.0223 3.6406 -9.7914 2.4607 -36.0713 -30.9505 67.9615 3.9741 52.1638 13.4754 0.7235 -11.4203 0.1711 1.1631 -7.7931 -6.3833 
0.0000 93.1000 0.0000 69.3003 -18.1029 -6.0549 -71.1535 0.0845 87.9603 90.6730 70.9071 -2.4756 0.7042 21.1229 -0.8180 -129.0932 34.0663 155.1951 151.8594 75.0585 -130.3248 -0.3813 -17.2691 -25.2811 -60.9035 26.0646 -153.1536 22.7573 -2.8484 -95.3869 -0.0620 -0.1950 -0.0678 -2.9214 7.8294 38.0078 -151.8545 1.9378 90.3456 6.8104 -4.8999 61.7164 0.2051 -0.0005 -0.1161 -31.3751 17.0707 95.2071 -7.8777 60.3412 -14.7553 -0.0952 -18.2065 -2.0702 3.6464 -10.3308 3.5651 -36.1346 -30.4124 67.6414 3.3173 50.7251 14.2152 0.5717 -10.8153 0.0908 1.1238 -8.0677 -6.7063 
